<mxfile host="app.diagrams.net" agent="Mozilla/5.0 (Windows NT 10.0; Win64; x64) AppleWebKit/537.36 (KHTML, like Gecko) Chrome/132.0.0.0 YaBrowser/25.2.0.0 Safari/537.36" version="26.2.14">
  <diagram name="Страница — 1" id="XZImnc5I4jzhDknwo04v">
    <mxGraphModel dx="736" dy="477" grid="1" gridSize="10" guides="1" tooltips="1" connect="1" arrows="1" fold="1" page="1" pageScale="1" pageWidth="4681" pageHeight="3300" background="#ffffff" math="0" shadow="0">
      <root>
        <mxCell id="0" />
        <mxCell id="1" parent="0" />
        <mxCell id="4TD8X55cjjUpD7jPCMEw-7" value="Администрация&lt;div&gt;спортшколы&lt;/div&gt;" style="text;html=1;align=center;verticalAlign=middle;whiteSpace=wrap;rounded=0;" parent="1" vertex="1">
          <mxGeometry x="70" y="320" width="60" height="30" as="geometry" />
        </mxCell>
        <mxCell id="4TD8X55cjjUpD7jPCMEw-8" value="Гостиница" style="text;html=1;align=center;verticalAlign=middle;whiteSpace=wrap;rounded=0;" parent="1" vertex="1">
          <mxGeometry x="50" y="480" width="70" height="30" as="geometry" />
        </mxCell>
        <mxCell id="4TD8X55cjjUpD7jPCMEw-12" value="Триггер: получение&lt;div&gt;списка участников&lt;/div&gt;" style="text;html=1;align=center;verticalAlign=middle;whiteSpace=wrap;rounded=0;" parent="1" vertex="1">
          <mxGeometry x="170" y="190" width="120" height="30" as="geometry" />
        </mxCell>
        <mxCell id="4TD8X55cjjUpD7jPCMEw-14" value="" style="endArrow=classic;html=1;rounded=0;entryX=0.224;entryY=0.065;entryDx=0;entryDy=0;entryPerimeter=0;" parent="1" target="4TD8X55cjjUpD7jPCMEw-13" edge="1">
          <mxGeometry width="50" height="50" relative="1" as="geometry">
            <mxPoint x="260" y="220" as="sourcePoint" />
            <mxPoint x="550" y="350" as="targetPoint" />
          </mxGeometry>
        </mxCell>
        <mxCell id="4TD8X55cjjUpD7jPCMEw-17" value="" style="endArrow=classic;html=1;rounded=0;exitX=1;exitY=1;exitDx=0;exitDy=0;entryX=0.011;entryY=0.364;entryDx=0;entryDy=0;entryPerimeter=0;" parent="1" source="4TD8X55cjjUpD7jPCMEw-13" target="4TD8X55cjjUpD7jPCMEw-16" edge="1">
          <mxGeometry width="50" height="50" relative="1" as="geometry">
            <mxPoint x="440" y="390" as="sourcePoint" />
            <mxPoint x="500" y="450" as="targetPoint" />
          </mxGeometry>
        </mxCell>
        <mxCell id="4TD8X55cjjUpD7jPCMEw-18" value="Отправка&lt;div&gt;формы&amp;nbsp;&lt;/div&gt;" style="edgeLabel;html=1;align=center;verticalAlign=middle;resizable=0;points=[];" parent="4TD8X55cjjUpD7jPCMEw-17" vertex="1" connectable="0">
          <mxGeometry x="-0.1122" relative="1" as="geometry">
            <mxPoint x="1" y="3" as="offset" />
          </mxGeometry>
        </mxCell>
        <mxCell id="4TD8X55cjjUpD7jPCMEw-21" value="" style="endArrow=none;dashed=1;html=1;rounded=0;fillColor=#d80073;strokeColor=#A50040;" parent="1" source="4TD8X55cjjUpD7jPCMEw-32" target="4TD8X55cjjUpD7jPCMEw-19" edge="1">
          <mxGeometry width="50" height="50" relative="1" as="geometry">
            <mxPoint x="130" y="320" as="sourcePoint" />
            <mxPoint x="1170" y="320" as="targetPoint" />
          </mxGeometry>
        </mxCell>
        <mxCell id="4TD8X55cjjUpD7jPCMEw-19" value="рассмотрение&lt;div&gt;альтернатив&lt;/div&gt;" style="ellipse;whiteSpace=wrap;html=1;aspect=fixed;fillColor=#f8cecc;strokeColor=#b85450;" parent="1" vertex="1">
          <mxGeometry x="586.19" y="276.72" width="85.78" height="85.78" as="geometry" />
        </mxCell>
        <mxCell id="4TD8X55cjjUpD7jPCMEw-22" value="" style="endArrow=none;dashed=1;html=1;rounded=0;fillColor=#d80073;strokeColor=#A50040;" parent="1" target="4TD8X55cjjUpD7jPCMEw-13" edge="1">
          <mxGeometry width="50" height="50" relative="1" as="geometry">
            <mxPoint x="40" y="320" as="sourcePoint" />
            <mxPoint x="560" y="320" as="targetPoint" />
          </mxGeometry>
        </mxCell>
        <mxCell id="4TD8X55cjjUpD7jPCMEw-13" value="формирование&lt;div&gt;требований к&lt;/div&gt;&lt;div&gt;заселению (заявка)&lt;/div&gt;" style="ellipse;whiteSpace=wrap;html=1;aspect=fixed;fillColor=#f8cecc;strokeColor=#b85450;" parent="1" vertex="1">
          <mxGeometry x="290" y="269.22" width="100" height="100" as="geometry" />
        </mxCell>
        <mxCell id="4TD8X55cjjUpD7jPCMEw-23" value="" style="endArrow=none;dashed=1;html=1;rounded=0;fillColor=#0050ef;strokeColor=#001DBC;" parent="1" target="4TD8X55cjjUpD7jPCMEw-16" edge="1">
          <mxGeometry width="50" height="50" relative="1" as="geometry">
            <mxPoint x="40" y="485" as="sourcePoint" />
            <mxPoint x="1080" y="480" as="targetPoint" />
          </mxGeometry>
        </mxCell>
        <mxCell id="4TD8X55cjjUpD7jPCMEw-16" value="согласование заявки/&lt;div&gt;предложение&lt;/div&gt;&lt;div&gt;альтернатив&lt;/div&gt;" style="ellipse;whiteSpace=wrap;html=1;aspect=fixed;fillColor=#dae8fc;strokeColor=#6c8ebf;" parent="1" vertex="1">
          <mxGeometry x="496.19" y="440" width="90" height="90" as="geometry" />
        </mxCell>
        <mxCell id="4TD8X55cjjUpD7jPCMEw-24" value="" style="endArrow=classic;html=1;rounded=0;entryX=0.696;entryY=0.995;entryDx=0;entryDy=0;exitX=1;exitY=0;exitDx=0;exitDy=0;curved=1;entryPerimeter=0;" parent="1" source="4TD8X55cjjUpD7jPCMEw-16" target="4TD8X55cjjUpD7jPCMEw-19" edge="1">
          <mxGeometry width="50" height="50" relative="1" as="geometry">
            <mxPoint x="502.2199999999999" y="460.78999999999996" as="sourcePoint" />
            <mxPoint x="559.0799999999999" y="339.22" as="targetPoint" />
            <Array as="points">
              <mxPoint x="640" y="420" />
            </Array>
          </mxGeometry>
        </mxCell>
        <mxCell id="4TD8X55cjjUpD7jPCMEw-26" value="Предложить&lt;div&gt;альтернативные&lt;/div&gt;&lt;div&gt;требования&lt;/div&gt;" style="edgeLabel;html=1;align=center;verticalAlign=middle;resizable=0;points=[];" parent="4TD8X55cjjUpD7jPCMEw-24" vertex="1" connectable="0">
          <mxGeometry x="0.1125" y="1" relative="1" as="geometry">
            <mxPoint x="-3" y="-9" as="offset" />
          </mxGeometry>
        </mxCell>
        <mxCell id="4TD8X55cjjUpD7jPCMEw-27" value="" style="ellipse;html=1;shape=endState;fillColor=#000000;strokeColor=#ff0000;" parent="1" vertex="1">
          <mxGeometry x="614.0799999999999" y="180" width="30" height="30" as="geometry" />
        </mxCell>
        <mxCell id="4TD8X55cjjUpD7jPCMEw-28" value="" style="endArrow=classic;html=1;rounded=0;entryX=0.5;entryY=1;entryDx=0;entryDy=0;exitX=0.5;exitY=0;exitDx=0;exitDy=0;" parent="1" source="4TD8X55cjjUpD7jPCMEw-19" target="4TD8X55cjjUpD7jPCMEw-27" edge="1">
          <mxGeometry width="50" height="50" relative="1" as="geometry">
            <mxPoint x="539.0799999999999" y="319.22" as="sourcePoint" />
            <mxPoint x="589.0799999999999" y="269.22" as="targetPoint" />
          </mxGeometry>
        </mxCell>
        <mxCell id="OU55oVlJYmyEjanWNOu9-14" value="Не согласен" style="edgeLabel;html=1;align=center;verticalAlign=middle;resizable=0;points=[];" parent="4TD8X55cjjUpD7jPCMEw-28" vertex="1" connectable="0">
          <mxGeometry x="0.0769" y="1" relative="1" as="geometry">
            <mxPoint as="offset" />
          </mxGeometry>
        </mxCell>
        <mxCell id="4TD8X55cjjUpD7jPCMEw-30" value="" style="endArrow=classic;html=1;rounded=0;exitX=0.015;exitY=0.647;exitDx=0;exitDy=0;exitPerimeter=0;entryX=0.5;entryY=0;entryDx=0;entryDy=0;curved=1;" parent="1" source="4TD8X55cjjUpD7jPCMEw-19" target="4TD8X55cjjUpD7jPCMEw-16" edge="1">
          <mxGeometry width="50" height="50" relative="1" as="geometry">
            <mxPoint x="479.08000000000004" y="399.22" as="sourcePoint" />
            <mxPoint x="479.9999999999999" y="436.1500000000001" as="targetPoint" />
            <Array as="points">
              <mxPoint x="540" y="369" />
            </Array>
          </mxGeometry>
        </mxCell>
        <mxCell id="4TD8X55cjjUpD7jPCMEw-31" value="Отправка&lt;div&gt;формы&lt;/div&gt;" style="edgeLabel;html=1;align=center;verticalAlign=middle;resizable=0;points=[];" parent="4TD8X55cjjUpD7jPCMEw-30" vertex="1" connectable="0">
          <mxGeometry x="-0.1965" y="7" relative="1" as="geometry">
            <mxPoint x="1" y="3" as="offset" />
          </mxGeometry>
        </mxCell>
        <mxCell id="4TD8X55cjjUpD7jPCMEw-33" value="" style="endArrow=none;dashed=1;html=1;rounded=0;fillColor=#d80073;strokeColor=#A50040;" parent="1" source="4TD8X55cjjUpD7jPCMEw-13" target="4TD8X55cjjUpD7jPCMEw-32" edge="1">
          <mxGeometry width="50" height="50" relative="1" as="geometry">
            <mxPoint x="470" y="320" as="sourcePoint" />
            <mxPoint x="694" y="320" as="targetPoint" />
          </mxGeometry>
        </mxCell>
        <mxCell id="4TD8X55cjjUpD7jPCMEw-32" value="уведомление&lt;div&gt;об отказе&lt;/div&gt;" style="ellipse;whiteSpace=wrap;html=1;aspect=fixed;fillColor=#f8cecc;strokeColor=#b85450;" parent="1" vertex="1">
          <mxGeometry x="430" y="279.22" width="80.78" height="80.78" as="geometry" />
        </mxCell>
        <mxCell id="OU55oVlJYmyEjanWNOu9-1" value="" style="endArrow=classic;html=1;rounded=0;exitX=0.215;exitY=0.095;exitDx=0;exitDy=0;entryX=0.589;entryY=0.955;entryDx=0;entryDy=0;entryPerimeter=0;exitPerimeter=0;" parent="1" source="4TD8X55cjjUpD7jPCMEw-16" target="4TD8X55cjjUpD7jPCMEw-32" edge="1">
          <mxGeometry width="50" height="50" relative="1" as="geometry">
            <mxPoint x="477.4999999999998" y="427.5" as="sourcePoint" />
            <mxPoint x="612.5" y="397.5" as="targetPoint" />
          </mxGeometry>
        </mxCell>
        <mxCell id="OU55oVlJYmyEjanWNOu9-2" value="Отказ" style="edgeLabel;html=1;align=center;verticalAlign=middle;resizable=0;points=[];" parent="OU55oVlJYmyEjanWNOu9-1" vertex="1" connectable="0">
          <mxGeometry x="-0.0218" y="-1" relative="1" as="geometry">
            <mxPoint x="-2" y="-13" as="offset" />
          </mxGeometry>
        </mxCell>
        <mxCell id="OU55oVlJYmyEjanWNOu9-3" value="" style="ellipse;html=1;shape=endState;fillColor=#000000;strokeColor=#ff0000;" parent="1" vertex="1">
          <mxGeometry x="455.39" y="180" width="30" height="30" as="geometry" />
        </mxCell>
        <mxCell id="OU55oVlJYmyEjanWNOu9-4" value="" style="endArrow=classic;html=1;rounded=0;entryX=0.5;entryY=1;entryDx=0;entryDy=0;exitX=0.5;exitY=0;exitDx=0;exitDy=0;" parent="1" source="4TD8X55cjjUpD7jPCMEw-32" target="OU55oVlJYmyEjanWNOu9-3" edge="1">
          <mxGeometry width="50" height="50" relative="1" as="geometry">
            <mxPoint x="500" y="260" as="sourcePoint" />
            <mxPoint x="430.39" y="272.5" as="targetPoint" />
          </mxGeometry>
        </mxCell>
        <mxCell id="OU55oVlJYmyEjanWNOu9-15" value="ОК" style="edgeLabel;html=1;align=center;verticalAlign=middle;resizable=0;points=[];" parent="OU55oVlJYmyEjanWNOu9-4" vertex="1" connectable="0">
          <mxGeometry x="0.1198" y="1" relative="1" as="geometry">
            <mxPoint x="1" as="offset" />
          </mxGeometry>
        </mxCell>
        <mxCell id="OU55oVlJYmyEjanWNOu9-22" value="" style="endArrow=none;dashed=1;html=1;rounded=0;fillColor=#d80073;strokeColor=#A50040;" parent="1" source="OU55oVlJYmyEjanWNOu9-21" edge="1">
          <mxGeometry width="50" height="50" relative="1" as="geometry">
            <mxPoint x="519.97" y="319" as="sourcePoint" />
            <mxPoint x="820.89" y="318.72" as="targetPoint" />
          </mxGeometry>
        </mxCell>
        <mxCell id="OU55oVlJYmyEjanWNOu9-23" value="" style="endArrow=classic;html=1;rounded=0;exitX=1;exitY=0.364;exitDx=0;exitDy=0;exitPerimeter=0;entryX=0;entryY=1;entryDx=0;entryDy=0;curved=1;" parent="1" source="4TD8X55cjjUpD7jPCMEw-16" target="OU55oVlJYmyEjanWNOu9-21" edge="1">
          <mxGeometry width="50" height="50" relative="1" as="geometry">
            <mxPoint x="740" y="440.0000000000001" as="sourcePoint" />
            <mxPoint x="789.97" y="380" as="targetPoint" />
            <Array as="points">
              <mxPoint x="720" y="450" />
            </Array>
          </mxGeometry>
        </mxCell>
        <mxCell id="heGs4l1RXO6iSrHjVHMP-1" value="Согласие" style="edgeLabel;html=1;align=center;verticalAlign=middle;resizable=0;points=[];" parent="OU55oVlJYmyEjanWNOu9-23" vertex="1" connectable="0">
          <mxGeometry x="0.1058" y="17" relative="1" as="geometry">
            <mxPoint x="3" y="-8" as="offset" />
          </mxGeometry>
        </mxCell>
        <mxCell id="OU55oVlJYmyEjanWNOu9-26" value="" style="endArrow=classic;html=1;rounded=0;entryX=0.5;entryY=0;entryDx=0;entryDy=0;exitX=0.5;exitY=1;exitDx=0;exitDy=0;" parent="1" source="OU55oVlJYmyEjanWNOu9-21" target="6ESPVo5vsy1qWNd85EMm-1" edge="1">
          <mxGeometry width="50" height="50" relative="1" as="geometry">
            <mxPoint x="818" y="370" as="sourcePoint" />
            <mxPoint x="775" y="264.22" as="targetPoint" />
          </mxGeometry>
        </mxCell>
        <mxCell id="OU55oVlJYmyEjanWNOu9-27" value="Отказ" style="edgeLabel;html=1;align=center;verticalAlign=middle;resizable=0;points=[];" parent="OU55oVlJYmyEjanWNOu9-26" vertex="1" connectable="0">
          <mxGeometry x="-0.0398" relative="1" as="geometry">
            <mxPoint y="-2" as="offset" />
          </mxGeometry>
        </mxCell>
        <mxCell id="OU55oVlJYmyEjanWNOu9-32" value="" style="endArrow=none;dashed=1;html=1;rounded=0;fillColor=#d80073;strokeColor=#A50040;" parent="1" source="OU55oVlJYmyEjanWNOu9-21" edge="1">
          <mxGeometry width="50" height="50" relative="1" as="geometry">
            <mxPoint x="1040" y="319" as="sourcePoint" />
            <mxPoint x="1120" y="320" as="targetPoint" />
          </mxGeometry>
        </mxCell>
        <mxCell id="OU55oVlJYmyEjanWNOu9-35" value="" style="endArrow=none;dashed=1;html=1;rounded=0;fillColor=#d80073;strokeColor=#A50040;" parent="1" target="OU55oVlJYmyEjanWNOu9-21" edge="1">
          <mxGeometry width="50" height="50" relative="1" as="geometry">
            <mxPoint x="670" y="319" as="sourcePoint" />
            <mxPoint x="970.92" y="318.72" as="targetPoint" />
          </mxGeometry>
        </mxCell>
        <mxCell id="OU55oVlJYmyEjanWNOu9-21" value="согласие&lt;div&gt;на составление&lt;/div&gt;&lt;div&gt;договора&lt;/div&gt;" style="ellipse;whiteSpace=wrap;html=1;aspect=fixed;fillColor=#f8cecc;strokeColor=#b85450;" parent="1" vertex="1">
          <mxGeometry x="767.11" y="271.72" width="95.78" height="95.78" as="geometry" />
        </mxCell>
        <mxCell id="heGs4l1RXO6iSrHjVHMP-3" value="" style="endArrow=classic;html=1;rounded=0;entryX=0;entryY=0;entryDx=0;entryDy=0;exitX=0.906;exitY=0.808;exitDx=0;exitDy=0;exitPerimeter=0;" parent="1" source="OU55oVlJYmyEjanWNOu9-21" target="heGs4l1RXO6iSrHjVHMP-2" edge="1">
          <mxGeometry width="50" height="50" relative="1" as="geometry">
            <mxPoint x="842" y="361" as="sourcePoint" />
            <mxPoint x="770" y="390" as="targetPoint" />
          </mxGeometry>
        </mxCell>
        <mxCell id="heGs4l1RXO6iSrHjVHMP-4" value="Согласие" style="edgeLabel;html=1;align=center;verticalAlign=middle;resizable=0;points=[];" parent="heGs4l1RXO6iSrHjVHMP-3" vertex="1" connectable="0">
          <mxGeometry x="-0.0991" relative="1" as="geometry">
            <mxPoint x="13" y="4" as="offset" />
          </mxGeometry>
        </mxCell>
        <mxCell id="heGs4l1RXO6iSrHjVHMP-6" value="" style="endArrow=none;dashed=1;html=1;rounded=0;fillColor=#0050ef;strokeColor=#001DBC;exitX=1;exitY=0.5;exitDx=0;exitDy=0;" parent="1" source="6ESPVo5vsy1qWNd85EMm-1" target="heGs4l1RXO6iSrHjVHMP-2" edge="1">
          <mxGeometry width="50" height="50" relative="1" as="geometry">
            <mxPoint x="610" y="485" as="sourcePoint" />
            <mxPoint x="1350" y="485" as="targetPoint" />
            <Array as="points">
              <mxPoint x="930" y="485" />
              <mxPoint x="940" y="485" />
            </Array>
          </mxGeometry>
        </mxCell>
        <mxCell id="heGs4l1RXO6iSrHjVHMP-2" value="уведомление&lt;div&gt;о согласии на&lt;/div&gt;&lt;div&gt;составление&lt;/div&gt;&lt;div&gt;договора&lt;/div&gt;" style="ellipse;whiteSpace=wrap;html=1;aspect=fixed;fillColor=#dae8fc;strokeColor=#6c8ebf;" parent="1" vertex="1">
          <mxGeometry x="970" y="440" width="90" height="90" as="geometry" />
        </mxCell>
        <mxCell id="heGs4l1RXO6iSrHjVHMP-7" value="" style="endArrow=classic;html=1;rounded=0;exitX=1;exitY=0.5;exitDx=0;exitDy=0;entryX=0;entryY=0.5;entryDx=0;entryDy=0;" parent="1" source="heGs4l1RXO6iSrHjVHMP-2" target="OU55oVlJYmyEjanWNOu9-36" edge="1">
          <mxGeometry width="50" height="50" relative="1" as="geometry">
            <mxPoint x="1220" y="330" as="sourcePoint" />
            <mxPoint x="1130" y="485" as="targetPoint" />
          </mxGeometry>
        </mxCell>
        <mxCell id="6ESPVo5vsy1qWNd85EMm-7" value="ОК" style="edgeLabel;html=1;align=center;verticalAlign=middle;resizable=0;points=[];" parent="heGs4l1RXO6iSrHjVHMP-7" vertex="1" connectable="0">
          <mxGeometry x="-0.1776" y="-1" relative="1" as="geometry">
            <mxPoint as="offset" />
          </mxGeometry>
        </mxCell>
        <mxCell id="6ESPVo5vsy1qWNd85EMm-2" value="" style="endArrow=none;dashed=1;html=1;rounded=0;fillColor=#0050ef;strokeColor=#001DBC;exitX=1;exitY=0.5;exitDx=0;exitDy=0;" parent="1" source="4TD8X55cjjUpD7jPCMEw-16" target="6ESPVo5vsy1qWNd85EMm-1" edge="1">
          <mxGeometry width="50" height="50" relative="1" as="geometry">
            <mxPoint x="586" y="485" as="sourcePoint" />
            <mxPoint x="940" y="485" as="targetPoint" />
          </mxGeometry>
        </mxCell>
        <mxCell id="6ESPVo5vsy1qWNd85EMm-1" value="уведомление&lt;div&gt;об отказе на&lt;/div&gt;&lt;div&gt;составление&lt;/div&gt;&lt;div&gt;договора&lt;/div&gt;" style="ellipse;whiteSpace=wrap;html=1;aspect=fixed;fillColor=#dae8fc;strokeColor=#6c8ebf;" parent="1" vertex="1">
          <mxGeometry x="770" y="440" width="90" height="90" as="geometry" />
        </mxCell>
        <mxCell id="6ESPVo5vsy1qWNd85EMm-4" value="" style="endArrow=classic;html=1;rounded=0;exitX=1;exitY=0.5;exitDx=0;exitDy=0;entryX=0;entryY=0.5;entryDx=0;entryDy=0;" parent="1" source="6ESPVo5vsy1qWNd85EMm-1" target="OU55oVlJYmyEjanWNOu9-25" edge="1">
          <mxGeometry width="50" height="50" relative="1" as="geometry">
            <mxPoint x="950" y="530" as="sourcePoint" />
            <mxPoint x="900" y="485" as="targetPoint" />
          </mxGeometry>
        </mxCell>
        <mxCell id="6ESPVo5vsy1qWNd85EMm-5" value="ОК" style="edgeLabel;html=1;align=center;verticalAlign=middle;resizable=0;points=[];" parent="6ESPVo5vsy1qWNd85EMm-4" vertex="1" connectable="0">
          <mxGeometry x="-0.1661" relative="1" as="geometry">
            <mxPoint as="offset" />
          </mxGeometry>
        </mxCell>
        <mxCell id="OU55oVlJYmyEjanWNOu9-25" value="" style="ellipse;html=1;shape=endState;fillColor=#000000;strokeColor=#ff0000;" parent="1" vertex="1">
          <mxGeometry x="910" y="470" width="30" height="30" as="geometry" />
        </mxCell>
        <mxCell id="OU55oVlJYmyEjanWNOu9-36" value="" style="ellipse;html=1;shape=endState;fillColor=#000000;strokeColor=light-dark(#15D000,#FF9090);" parent="1" vertex="1">
          <mxGeometry x="1110" y="469.99999999999994" width="30" height="30" as="geometry" />
        </mxCell>
      </root>
    </mxGraphModel>
  </diagram>
</mxfile>
